# xmcd CD database file
#
# Track frame offsets:
#	165
#	21712
#	35837
#	58097
#	69716
#	94176
#	116135
#	133560
#	155864
#	178302
#	201485
#	217164
#	226326
#
# Disc length: 3144 seconds
#
# Revision: 0
# Processed by: cddbd v1.5.2PL0 Copyright (c) Steve Scherf et al.
# Submitted via: CDex 1.51
#
DISCID=d90c460d
DTITLE=Bernd Rinser - Driftwood
DYEAR=2005
DGENRE=Country
TTITLE0=Gonna Knock On Your Door Again
TTITLE1=Sloppy Drunk
TTITLE2=Management Blues
TTITLE3=Walkin' Under A Crescent Moon
TTITLE4=Sittin' Here All Alone
TTITLE5=Turn Off The Tap
TTITLE6=Hangin' On Your Hook
TTITLE7=Overnight
TTITLE8=That's No Way To Say Goodbye
TTITLE9=Pony Blues (Son House)
TTITLE10=Sweet Lips
TTITLE11=Hidden Track
TTITLE12=Laguna Luna (Samuel Mitchell)
EXTD=YEAR: 2005
EXTT0=
EXTT1=
EXTT2=
EXTT3=
EXTT4=
EXTT5=
EXTT6=
EXTT7=
EXTT8=
EXTT9=
EXTT10=
EXTT11=
EXTT12=
PLAYORDER=
